<svg width="68" height="68" viewBox="0 0 68 68" fill="none" xmlns="http://www.w3.org/2000/svg">
<path d="M54 40.6667C52.0306 40.6797 50.0885 41.1288 48.3134 41.9818C46.5382 42.8348 44.9741 44.0705 43.7333 45.6L26.7333 37.7667C27.5326 35.3192 27.5326 32.6808 26.7333 30.2333L43.7333 22.4C45.7387 24.8199 48.5345 26.4536 51.6272 27.0128C54.7199 27.572 57.9107 27.0208 60.6365 25.4563C63.3623 23.8919 65.4479 21.4149 66.5252 18.4625C67.6024 15.51 67.6021 12.2719 66.5243 9.31969C65.4465 6.36744 63.3605 3.89081 60.6344 2.32689C57.9083 0.762977 54.7174 0.212311 51.6248 0.772078C48.5322 1.33185 45.7367 2.96606 43.7318 5.38631C41.7268 7.80656 40.6413 10.8573 40.6667 14C40.6767 14.7941 40.7548 15.5859 40.9 16.3667L23.3 24.4667C21.4236 22.6319 19.0475 21.3917 16.4694 20.9014C13.8912 20.4111 11.2257 20.6926 8.80685 21.7104C6.38795 22.7283 4.32322 24.4374 2.87135 26.6235C1.41947 28.8097 0.64502 31.3757 0.64502 34C0.64502 36.6243 1.41947 39.1903 2.87135 41.3765C4.32322 43.5626 6.38795 45.2717 8.80685 46.2896C11.2257 47.3074 13.8912 47.5889 16.4694 47.0986C19.0475 46.6083 21.4236 45.3681 23.3 43.5333L40.9 51.6333C40.7548 52.4141 40.6767 53.2059 40.6667 54C40.6667 56.6371 41.4487 59.2149 42.9138 61.4076C44.3788 63.6003 46.4612 65.3092 48.8976 66.3184C51.3339 67.3276 54.0148 67.5916 56.6012 67.0771C59.1876 66.5627 61.5634 65.2928 63.4281 63.4281C65.2928 61.5634 66.5627 59.1876 67.0771 56.6012C67.5916 54.0148 67.3276 51.3339 66.3184 48.8976C65.3092 46.4612 63.6003 44.3788 61.4076 42.9137C59.215 41.4487 56.6371 40.6667 54 40.6667ZM54 7.33333C55.3186 7.33333 56.6075 7.72433 57.7038 8.45687C58.8001 9.18941 59.6546 10.2306 60.1592 11.4488C60.6638 12.667 60.7958 14.0074 60.5386 15.3006C60.2813 16.5938 59.6464 17.7817 58.7141 18.714C57.7817 19.6464 56.5938 20.2813 55.3006 20.5386C54.0074 20.7958 52.667 20.6638 51.4488 20.1592C50.2306 19.6546 49.1894 18.8001 48.4569 17.7038C47.7243 16.6075 47.3333 15.3185 47.3333 14C47.3333 12.2319 48.0357 10.5362 49.286 9.28595C50.5362 8.03571 52.2319 7.33333 54 7.33333ZM14 40.6667C12.6815 40.6667 11.3925 40.2757 10.2962 39.5431C9.19988 38.8106 8.3454 37.7694 7.84081 36.5512C7.33623 35.333 7.20421 33.9926 7.46144 32.6994C7.71868 31.4062 8.35362 30.2183 9.28597 29.286C10.2183 28.3536 11.4062 27.7187 12.6994 27.4614C13.9926 27.2042 15.3331 27.3362 16.5512 27.8408C17.7694 28.3454 18.8106 29.1999 19.5431 30.2962C20.2757 31.3925 20.6667 32.6815 20.6667 34C20.6667 35.7681 19.9643 37.4638 18.7141 38.714C17.4638 39.9643 15.7681 40.6667 14 40.6667ZM54 60.6667C52.6815 60.6667 51.3925 60.2757 50.2962 59.5431C49.1999 58.8106 48.3454 57.7694 47.8408 56.5512C47.3362 55.333 47.2042 53.9926 47.4614 52.6994C47.7187 51.4062 48.3536 50.2183 49.286 49.286C50.2183 48.3536 51.4062 47.7187 52.6994 47.4614C53.9926 47.2042 55.3331 47.3362 56.5512 47.8408C57.7694 48.3454 58.8106 49.1999 59.5431 50.2962C60.2757 51.3925 60.6667 52.6815 60.6667 54C60.6667 55.7681 59.9643 57.4638 58.7141 58.714C57.4638 59.9643 55.7681 60.6667 54 60.6667Z" fill="#5575E5"/>
</svg>
