<svg width="68" height="68" viewBox="0 0 68 68" fill="none" xmlns="http://www.w3.org/2000/svg">
<path d="M67.3333 15.8333C67.2958 14.3952 67.1846 12.96 67 11.5333C66.7511 10.2837 66.3363 9.07303 65.7666 7.93333C65.1708 6.69702 64.3707 5.57009 63.4 4.6C62.4203 3.64068 61.2953 2.84197 60.0666 2.23333C58.9254 1.67482 57.7147 1.27125 56.4666 1.03333C55.0535 0.821666 53.6285 0.699202 52.2 0.666668H15.8333C14.3952 0.704123 12.96 0.81538 11.5333 1C10.2837 1.2489 9.07299 1.66368 7.93329 2.23333C6.69698 2.82912 5.57005 3.62924 4.59996 4.6C3.64064 5.5797 2.84193 6.70465 2.23329 7.93333C1.67477 9.07455 1.2712 10.2853 1.03329 11.5333C0.821624 12.9465 0.69916 14.3715 0.666626 15.8C0.666626 16.4333 0.666626 17.3333 0.666626 17.6V50.4C0.666626 50.7667 0.666626 51.5667 0.666626 52.1667C0.704081 53.6048 0.815338 55.04 0.999959 56.4667C1.24885 57.7163 1.66364 58.927 2.23329 60.0667C2.82908 61.303 3.6292 62.4299 4.59996 63.4C5.57966 64.3593 6.70461 65.158 7.93329 65.7667C9.0745 66.3252 10.2852 66.7288 11.5333 66.9667C12.9464 67.1783 14.3714 67.3008 15.8 67.3333H52.1666C53.6047 67.2959 55.0399 67.1846 56.4666 67C57.7162 66.7511 58.9269 66.3363 60.0666 65.7667C61.3029 65.1709 62.4299 64.3708 63.4 63.4C64.3593 62.4203 65.158 61.2954 65.7666 60.0667C66.3251 58.9255 66.7287 57.7147 66.9666 56.4667C67.1783 55.0536 67.3008 53.6285 67.3333 52.2C67.3333 51.5667 67.3333 50.7667 67.3333 50.4V17.6C67.3333 17.3333 67.3333 16.4333 67.3333 15.8333ZM34.7666 57.3333C30.7635 57.3136 26.8304 56.2816 23.3333 54.3333L10.6666 57.6667L14 45.2667C11.8503 41.6548 10.6999 37.5363 10.6666 33.3333C10.6799 28.6098 12.0906 23.9957 14.7212 20.0724C17.3517 16.149 21.0844 13.0918 25.4491 11.2857C29.8138 9.47967 34.6153 9.00557 39.2489 9.92313C43.8825 10.8407 48.141 13.1089 51.4881 16.442C54.8351 19.7752 57.121 24.0242 58.0578 28.654C58.9946 33.2837 58.5405 38.0872 56.7526 42.4594C54.9647 46.8315 51.923 50.5769 48.0106 53.2237C44.0982 55.8705 39.4901 57.3004 34.7666 57.3333ZM34.7666 13.5667C31.2327 13.6071 27.7725 14.5833 24.7385 16.3958C21.7044 18.2083 19.2049 20.7924 17.4943 23.8851C15.7837 26.9777 14.9231 30.4684 15.0002 34.0018C15.0774 37.5351 16.0894 40.9849 17.9333 44L18.4 44.7667L16.4 52.0667L24 50L24.7333 50.4333C27.7652 52.2192 31.2146 53.1735 34.7333 53.2C40.0376 53.2 45.1247 51.0929 48.8754 47.3421C52.6262 43.5914 54.7333 38.5043 54.7333 33.2C54.7333 27.8957 52.6262 22.8086 48.8754 19.0579C45.1247 15.3071 40.0376 13.2 34.7333 13.2L34.7666 13.5667ZM46.4333 41.9667C45.9967 42.6949 45.4121 43.3234 44.7173 43.8114C44.0226 44.2995 43.2331 44.6363 42.4 44.8C41.1551 45.0275 39.8735 44.9474 38.6666 44.5667C37.5311 44.2117 36.418 43.7887 35.3333 43.3C31.2124 41.2322 27.6981 38.1313 25.1333 34.3C23.7396 32.5249 22.8939 30.3818 22.7 28.1333C22.6801 27.1993 22.8568 26.2715 23.2186 25.4102C23.5803 24.5488 24.1191 23.7731 24.8 23.1333C25.0005 22.906 25.2465 22.7232 25.5221 22.5969C25.7977 22.4706 26.0968 22.4035 26.4 22.4H27.3333C27.7 22.4 28.2 22.4 28.6666 23.4333C29.1333 24.4667 30.3666 27.5667 30.5333 27.8667C30.6152 28.0266 30.6579 28.2037 30.6579 28.3833C30.6579 28.563 30.6152 28.7401 30.5333 28.9C30.3859 29.2622 30.1836 29.5995 29.9333 29.9C29.6333 30.2667 29.3 30.7 29.0333 30.9667C28.7666 31.2333 28.4333 31.5667 28.7666 32.1667C29.6736 33.6973 30.7962 35.0894 32.1 36.3C33.5197 37.5545 35.143 38.5578 36.9 39.2667C37.5 39.5667 37.8666 39.5333 38.2 39.2667C38.5333 39 39.7 37.5333 40.1 36.9333C40.5 36.3333 40.9 36.4333 41.4333 36.6333C41.9666 36.8333 44.9333 38.2667 45.5333 38.5667C46.1333 38.8667 46.5 39 46.6666 39.2667C46.8112 40.1391 46.7309 41.0339 46.4333 41.8667V41.9667Z" fill="#25D366"/>
</svg>
